<?xml version="1.0" encoding="UTF-8" standalone="no"?>
<svg
   width="121.92mm"
   height="128.5mm"
   version="1.1"
   viewBox="0 0 121.91999 128.5"
   id="svg21"
   sodipodi:docname="CavianPanel.svg"
   inkscape:version="1.4.3 (0d15f75, 2025-12-25)"
   xml:space="preserve"
   xmlns:inkscape="http://www.inkscape.org/namespaces/inkscape"
   xmlns:sodipodi="http://sodipodi.sourceforge.net/DTD/sodipodi-0.dtd"
   xmlns="http://www.w3.org/2000/svg"
   xmlns:svg="http://www.w3.org/2000/svg"><defs
     id="defs21"><rect
       x="126.81434"
       y="121.70772"
       width="200.00919"
       height="64.683825"
       id="rect3" /><rect
       x="290.2261"
       y="86.8125"
       width="228.09559"
       height="154.04963"
       id="rect2" /><linearGradient
       id="morph_gradient"
       x1="0"
       y1="84"
       x2="0"
       y2="103"
       gradientUnits="userSpaceOnUse"
       gradientTransform="matrix(1,0,0,4.3778148,87.614873,-326.66425)"><stop
         style="stop-color:#a06de4;stop-opacity:1;"
         offset="0"
         id="stop5" /><stop
         style="stop-color:#4f8df2;stop-opacity:1;"
         offset="1"
         id="stop6" /></linearGradient><rect
       x="126.81434"
       y="121.70772"
       width="178.73161"
       height="72.34375"
       id="rect3-0" /><rect
       x="126.81434"
       y="121.70772"
       width="178.73161"
       height="72.34375"
       id="rect3-0-8" /><rect
       x="126.81434"
       y="121.70772"
       width="178.73161"
       height="72.34375"
       id="rect3-0-8-4" /><rect
       x="126.81434"
       y="121.70772"
       width="178.73161"
       height="72.34375"
       id="rect3-0-8-4-4" /></defs><sodipodi:namedview
     id="namedview21"
     pagecolor="#ffffff"
     bordercolor="#000000"
     borderopacity="0.25"
     inkscape:showpageshadow="2"
     inkscape:pageopacity="0.0"
     inkscape:pagecheckerboard="0"
     inkscape:deskcolor="#d1d1d1"
     inkscape:document-units="mm"
     inkscape:zoom="1.174946"
     inkscape:cx="231.92555"
     inkscape:cy="295.75827"
     inkscape:window-width="1338"
     inkscape:window-height="993"
     inkscape:window-x="959"
     inkscape:window-y="79"
     inkscape:window-maximized="0"
     inkscape:current-layer="svg21" /><!-- Clean dark background --><rect
     width="121.92"
     height="128.5"
     fill="#0a0a15"
     id="rect1-9"
     style="fill:#0a0a15;fill-opacity:1;stroke-width:0.968425"
     x="0.12089029"
     y="0.28814334" /><!-- Caveman logo (subtle background accent) --><!-- Subtle panel divisions --><!-- Title --><!-- Top section labels --><!-- Navigation labels --><!-- Step grid frame --><!-- Output section --><!-- Channel numbers --><!-- Bottom labels --><text
     xml:space="preserve"
     transform="matrix(0.26458333,0,0,0.26458333,40.862767,100.34744)"
     id="text2-4-2-5"
     style="font-style:normal;font-variant:normal;font-weight:normal;font-stretch:normal;font-size:42.6667px;font-family:D-DIN;-inkscape-font-specification:D-DIN;writing-mode:lr-tb;direction:ltr;white-space:pre;shape-inside:url(#rect3-0-8-4);display:inline;opacity:0.780761;fill:#ffff21;fill-opacity:1;stroke-width:2.36976"><tspan
       x="126.81445"
       y="162.49639"
       id="tspan2"><tspan
         style="font-weight:bold;font-family:Calibri;-inkscape-font-specification:'Calibri, Bold';fill:#ffffff"
         id="tspan1">CAVIAN</tspan></tspan></text><path
     style="font-weight:bold;font-size:42.6667px;font-family:Calibri;-inkscape-font-specification:'Calibri, Bold';white-space:pre;opacity:0.780761;fill:#ffffff;stroke-width:0.626999"
     d="m 49.870068,12.799228 q 0,0.137803 -0.01103,0.237021 -0.0055,0.09371 -0.02204,0.165365 -0.01654,0.06615 -0.04409,0.115755 -0.02756,0.04961 -0.0882,0.115755 -0.06063,0.06064 -0.237022,0.159854 -0.170879,0.09922 -0.424437,0.192926 -0.248047,0.08819 -0.573265,0.148828 -0.319704,0.06063 -0.694531,0.06063 -0.733118,0 -1.322916,-0.225999 -0.589802,-0.225999 -1.003213,-0.672483 -0.413412,-0.451998 -0.633899,-1.124479 -0.220486,-0.672484 -0.220486,-1.565453 0,-0.9095074 0.242536,-1.6150638 0.242533,-0.7055538 0.677995,-1.1851137 0.435459,-0.4795573 1.041797,-0.7276042 0.611848,-0.2480469 1.344967,-0.2480469 0.297656,0 0.573264,0.049609 0.275606,0.049609 0.507117,0.1322917 0.237024,0.077171 0.424436,0.181901 0.187415,0.1047327 0.259072,0.181901 0.07717,0.07166 0.10473,0.1212692 0.02756,0.049609 0.0441,0.1267777 0.01654,0.077171 0.02204,0.1819011 0.01103,0.1047326 0.01103,0.259072 0,0.1653646 -0.01103,0.2811198 -0.01103,0.1157552 -0.03858,0.187415 -0.02756,0.071657 -0.06615,0.10473 -0.03858,0.033073 -0.08819,0.033073 -0.08268,0 -0.209463,-0.093707 Q 49.30783,8.2792539 49.103881,8.163499 48.905443,8.0422325 48.624324,7.948525 48.348715,7.849306 47.962863,7.849306 q -0.424434,0 -0.760678,0.1763897 -0.330729,0.1708759 -0.56775,0.4960938 -0.231511,0.3197039 -0.35278,0.7772135 -0.121266,0.4575096 -0.121266,1.030774 0,0.628386 0.12678,1.091407 0.132292,0.457509 0.369313,0.755165 0.242536,0.297657 0.578776,0.446485 0.341755,0.143317 0.766191,0.143317 0.38585,0 0.66697,-0.0882 0.28112,-0.0937 0.479557,-0.203948 0.203952,-0.110244 0.330729,-0.198438 0.132295,-0.08819 0.203952,-0.08819 0.05512,0 0.08819,0.02204 0.03307,0.02204 0.05512,0.08819 0.02204,0.06615 0.03307,0.187415 0.01103,0.115755 0.01103,0.314193 z m 6.884683,0.540191 q 0.06615,0.198438 0.08268,0.314193 0.01654,0.115755 -0.0441,0.176387 -0.06063,0.05512 -0.214974,0.06615 -0.154342,0.01654 -0.424437,0.01654 -0.281119,0 -0.440973,-0.01103 -0.154339,-0.0055 -0.237021,-0.02756 -0.08268,-0.02756 -0.115756,-0.07166 -0.03307,-0.0441 -0.05512,-0.115755 l -0.479557,-1.43316 h -2.678909 l -0.451996,1.394573 q -0.02204,0.07717 -0.06063,0.132292 -0.03307,0.04961 -0.115755,0.08268 -0.07717,0.02756 -0.225997,0.03859 -0.143317,0.01103 -0.380341,0.01103 -0.253558,0 -0.396875,-0.01654 -0.143314,-0.01654 -0.198438,-0.07717 -0.05512,-0.06615 -0.03858,-0.181901 0.01654,-0.115756 0.08268,-0.308682 l 2.199351,-6.3279546 q 0.03307,-0.093708 0.07717,-0.1488281 0.0441,-0.060635 0.137805,-0.088196 0.09922,-0.033073 0.270095,-0.038584 0.170876,-0.011033 0.451998,-0.011033 0.325215,0 0.518141,0.011033 0.192927,0.0055 0.297657,0.038584 0.110244,0.027562 0.154339,0.088196 0.04961,0.060632 0.08268,0.1653646 z M 53.480533,8.1083821 h -0.0055 l -1.008724,3.0316859 h 2.022962 z m 7.242973,5.5176689 q -0.02756,0.09371 -0.07166,0.154339 -0.0441,0.05512 -0.143314,0.0882 -0.09922,0.02756 -0.270098,0.03307 -0.170876,0.01103 -0.446484,0.01103 -0.220485,0 -0.380339,-0.0055 -0.154339,0 -0.264583,-0.01103 -0.110244,-0.01103 -0.181901,-0.03308 -0.06615,-0.02204 -0.115755,-0.05512 -0.0441,-0.03307 -0.07166,-0.07717 -0.02204,-0.04961 -0.04409,-0.121266 L 56.611437,7.2870784 q -0.06615,-0.1984375 -0.08268,-0.3141927 -0.01103,-0.1157552 0.05512,-0.1708758 0.07166,-0.060635 0.237025,-0.07166 0.165364,-0.016536 0.463021,-0.016536 0.253558,0 0.396875,0.011033 0.143314,0.011033 0.220485,0.038584 0.07717,0.027562 0.104732,0.082682 0.03307,0.055123 0.06063,0.1378055 l 1.736331,5.5011326 h 0.0055 l 1.703258,-5.4735736 q 0.02204,-0.093705 0.05512,-0.1488281 0.03307,-0.060632 0.110244,-0.093708 0.08268,-0.033073 0.23151,-0.044095 0.148828,-0.011033 0.407898,-0.011033 0.253561,0 0.391364,0.016536 0.143316,0.016536 0.192926,0.082682 0.05512,0.060635 0.03307,0.1763898 -0.01654,0.1157552 -0.08268,0.3086814 z m 4.580602,0.05512 q 0,0.05512 -0.03859,0.09922 -0.03307,0.0441 -0.115755,0.07166 -0.08268,0.02756 -0.220485,0.0441 -0.137803,0.01654 -0.35278,0.01654 -0.20946,0 -0.352777,-0.01654 -0.137803,-0.01654 -0.220485,-0.0441 -0.08268,-0.02756 -0.121269,-0.07166 -0.03307,-0.0441 -0.03307,-0.09922 V 6.9453161 q 0,-0.055121 0.03307,-0.099219 0.03859,-0.044096 0.121269,-0.071657 0.08819,-0.027562 0.225997,-0.044098 0.137805,-0.016536 0.347265,-0.016536 0.214977,0 0.35278,0.016536 0.137803,0.016536 0.220485,0.044098 0.08268,0.027562 0.115755,0.071657 0.03859,0.044098 0.03859,0.099219 z m 7.397313,-0.341752 q 0.06615,0.198438 0.08268,0.314193 0.01654,0.115755 -0.0441,0.176387 -0.06063,0.05512 -0.214974,0.06615 -0.15434,0.01654 -0.424434,0.01654 -0.281123,0 -0.440973,-0.01103 -0.154343,-0.0055 -0.237025,-0.02756 -0.08268,-0.02756 -0.115755,-0.07166 -0.03307,-0.0441 -0.05512,-0.115755 l -0.479557,-1.43316 h -2.678909 l -0.451995,1.394573 q -0.02204,0.07717 -0.06064,0.132292 -0.03307,0.04961 -0.115755,0.08268 -0.07717,0.02756 -0.225999,0.03859 -0.143317,0.01103 -0.380339,0.01103 -0.253558,0 -0.396875,-0.01654 -0.143317,-0.01654 -0.198437,-0.07717 -0.05512,-0.06615 -0.03858,-0.181901 0.01654,-0.115756 0.08268,-0.308682 l 2.199349,-6.3279546 q 0.03307,-0.093708 0.07717,-0.1488281 0.0441,-0.060635 0.137803,-0.088196 0.09922,-0.033073 0.270097,-0.038584 0.170876,-0.011033 0.451995,-0.011033 0.325218,0 0.518145,0.011033 0.192923,0.0055 0.297656,0.038584 0.110241,0.027562 0.154339,0.088196 0.04961,0.060632 0.08268,0.1653646 z M 69.4272,8.1083821 h -0.0055 l -1.008727,3.0316859 h 2.022962 z m 10.153393,5.2641099 q 0,0.126778 -0.0441,0.225997 -0.04409,0.09922 -0.121266,0.165364 -0.07166,0.06615 -0.17639,0.09922 -0.09922,0.02756 -0.203949,0.02756 h -0.617363 q -0.192923,0 -0.33624,-0.03858 -0.137803,-0.03859 -0.259072,-0.137806 -0.115755,-0.10473 -0.225997,-0.275606 -0.110244,-0.17639 -0.248049,-0.451998 L 75.573256,9.6517866 Q 75.418914,9.3541304 75.259064,9.012376 75.09921,8.6651104 74.97243,8.3398925 H 74.9614 q 0.02204,0.396875 0.03307,0.79375 0.01103,0.3913637 0.01103,0.8102865 v 3.731731 q 0,0.05512 -0.03307,0.09922 -0.02756,0.0441 -0.10473,0.07717 -0.07166,0.02756 -0.198437,0.0441 -0.126781,0.01654 -0.325218,0.01654 -0.192927,0 -0.319704,-0.01654 -0.126781,-0.01654 -0.19844,-0.0441 -0.07166,-0.03307 -0.09922,-0.07717 -0.02756,-0.0441 -0.02756,-0.09922 V 7.2650228 q 0,-0.2590721 0.148828,-0.3858525 0.154339,-0.1322917 0.374827,-0.1322917 h 0.777214 q 0.209462,0 0.352777,0.038584 0.143316,0.033076 0.25356,0.1157579 0.115756,0.082682 0.214974,0.2315104 0.09922,0.1433142 0.203949,0.3582881 l 1.389063,2.607252 q 0.121269,0.237022 0.237024,0.468532 0.121266,0.225999 0.23151,0.45751 0.110244,0.225999 0.214974,0.446484 0.10473,0.220488 0.203949,0.440973 h 0.0055 q -0.01654,-0.38585 -0.02756,-0.804775 -0.0055,-0.418923 -0.0055,-0.799264 V 6.9618526 q 0,-0.055121 0.03307,-0.099219 0.03307,-0.044095 0.110242,-0.077171 0.07717,-0.033073 0.203951,-0.044095 0.12678,-0.016536 0.325218,-0.016536 0.187412,0 0.314193,0.016536 0.126777,0.011033 0.192923,0.044095 0.07166,0.033076 0.09922,0.077171 0.02756,0.044098 0.02756,0.099219 z"
     id="text2-4-2-5-8"
     inkscape:transform-center-y="-0.67556302"
     aria-label="CAVIAN" /></svg>
